<svg width="19" height="18" viewBox="0 0 19 18"  xmlns="http://www.w3.org/2000/svg">
<path
    d="M11.5429 1.05963C12.1901 0.791445 12.8838 0.653412 13.5844 0.653412C14.285 0.653412 14.9787 0.791446 15.626 1.05963C16.2732 1.32781 16.8613 1.72088 17.3565 2.21639C17.8519 2.71162 18.2449 3.29959 18.513 3.94671C18.7812 4.59394 18.9193 5.28767 18.9193 5.98827C18.9193 6.68886 18.7812 7.38259 18.513 8.02982C18.2449 8.677 17.8519 9.26501 17.3564 9.76026L9.98974 17.1269C9.84909 17.2676 9.65832 17.3466 9.45941 17.3466C9.2605 17.3466 9.06973 17.2676 8.92908 17.1269L1.56241 9.76026C0.562016 8.75987 0 7.40304 0 5.98827C0 4.57349 0.562017 3.21667 1.56241 2.21627C2.56281 1.21587 3.91964 0.653858 5.33441 0.653858C6.74918 0.653857 8.10601 1.21587 9.10641 2.21627L9.45941 2.56927L9.81229 2.21639C10.3076 1.72088 10.8956 1.32781 11.5429 1.05963Z"
    fill="#ff3b3b"
  />
</svg>

